<svg xmlns="http://www.w3.org/2000/svg" viewBox="0 0 64 64" role="img" aria-label="Smart Notes">
  <title>Smart Notes</title>
  <rect x="1" y="1" width="62" height="62" rx="14" fill="#A9CFE5"/>
  <g transform="translate(10 10)">
    <rect x="1.5" y="1.5" width="37" height="37" rx="6" fill="#ffffff" stroke="#2E6FA3" stroke-width="2.4"/>
    <g stroke="#2E6FA3" stroke-width="1.2" opacity="0.75" stroke-linecap="round">
      <line x1="7" y1="10" x2="33" y2="10"/>
      <line x1="7" y1="16" x2="33" y2="16"/>
      <line x1="7" y1="22" x2="33" y2="22"/>
      <line x1="7" y1="28" x2="33" y2="28"/>
      <line x1="7" y1="34" x2="33" y2="34"/>
    </g>
    <text x="20" y="24" text-anchor="middle" font-family="'Helvetica Neue',Arial,sans-serif" font-size="9" font-weight="700" fill="#1a1a1a">Notes</text>
  </g>
  <g transform="translate(40 40)">
    <circle cx="10" cy="10" r="10.5" fill="#ffffff"/>
    <circle cx="10" cy="10" r="8.5" fill="#2E6FA3"/>
    <path d="M10 4.5c1.6 2.2 3.6 3.6 3.6 6.1 0 2.3-1.6 3.9-3.6 3.9s-3.6-1.6-3.6-3.9c0-1.4.7-2.3 1.6-3.2.2.8.7 1.3 1.3 1.3.2-1.7.2-2.9.7-4.2z" fill="#ffffff"/>
    <rect x="6" y="14.5" width="8" height="1.4" rx="0.7" fill="#ffffff"/>
  </g>
</svg>