<svg xmlns="http://www.w3.org/2000/svg" viewBox="0 0 200 200"><path fill="#fff" d="M0 0h200v200H0z"/><path fill="#e53935" d="M50 30h70l30 30v110a10 10 0 0 1-10 10H50a10 10 0 0 1-10-10V40a10 10 0 0 1 10-10"/><path fill="#b71c1c" d="M120 30v20a10 10 0 0 0 10 10h20Z"/><text x="100" y="115" fill="#fff" font-family="Arial,Helvetica,sans-serif" font-size="36" font-weight="800" text-anchor="middle">PDF</text><rect width="80" height="6" x="60" y="130" fill="#fff" rx="3"/><rect width="80" height="6" x="60" y="144" fill="#fff" rx="3"/><rect width="60" height="6" x="60" y="158" fill="#fff" rx="3"/></svg>